<svg width="16" height="19" viewBox="0 0 16 19" fill="none" xmlns="http://www.w3.org/2000/svg">
<path d="M14.7533 8.91645L1.81049 0.874856C1.70147 0.807123 1.57668 0.770138 1.44894 0.767706C1.3212 0.765274 1.19513 0.797483 1.08369 0.861019C0.972258 0.924556 0.879485 1.01713 0.814915 1.12921C0.750345 1.24129 0.716309 1.36884 0.716309 1.49873V17.5819C0.716309 17.7118 0.750345 17.8394 0.814915 17.9514C0.879485 18.0635 0.972258 18.1561 1.08369 18.2196C1.19513 18.2832 1.3212 18.3154 1.44894 18.3129C1.57668 18.3105 1.70147 18.2735 1.81049 18.2058L14.7533 10.1642C14.8584 10.0989 14.9453 10.0072 15.0056 9.89797C15.0658 9.78872 15.0975 9.66557 15.0975 9.54032C15.0975 9.41507 15.0658 9.29192 15.0056 9.18268C14.9453 9.07344 14.8584 8.98177 14.7533 8.91645Z" fill="white"/>
</svg>
