<svg width="41" height="42" viewBox="0 0 41 42" fill="none" xmlns="http://www.w3.org/2000/svg">
<path opacity="0.8" d="M30.6544 32.1647C36.2975 32.1647 40.8722 27.59 40.8722 21.9468C40.8722 16.3037 36.2975 11.729 30.6544 11.729C25.0112 11.729 20.4365 16.3037 20.4365 21.9468C20.4365 27.59 25.0112 32.1647 30.6544 32.1647Z" fill="#8338EC"/>
<path opacity="0.8" d="M10.2178 32.1647C15.861 32.1647 20.4357 27.59 20.4357 21.9468C20.4357 16.3037 15.861 11.729 10.2178 11.729C4.57468 11.729 0 16.3037 0 21.9468C0 27.59 4.57468 32.1647 10.2178 32.1647Z" fill="#3A86FF"/>
<path opacity="0.8" d="M20.4351 21.3771C26.0783 21.3771 30.653 16.8024 30.653 11.1592C30.653 5.51609 26.0783 0.941406 20.4351 0.941406C14.792 0.941406 10.2173 5.51609 10.2173 11.1592C10.2173 16.8024 14.792 21.3771 20.4351 21.3771Z" fill="#FFBE0B"/>
<path opacity="0.8" d="M20.4351 41.6696C26.0783 41.6696 30.653 37.0949 30.653 31.4517C30.653 25.8086 26.0783 21.2339 20.4351 21.2339C14.792 21.2339 10.2173 25.8086 10.2173 31.4517C10.2173 37.0949 14.792 41.6696 20.4351 41.6696Z" fill="#FB5607"/>
</svg>
